<svg xmlns="http://www.w3.org/2000/svg" xmlns:xlink="http://www.w3.org/1999/xlink" width="64" height="64" viewBox="0 0 512 512"><path fill="#49a0ae" d="M7.9 256C7.9 119 119 7.9 256 7.9S504.1 119 504.1 256 393 504.1 256 504.1 7.9 393 7.9 256z"/><g fill="#dff1ed"><path d="M412.7 313.2c0 18.1-14.6 32.7-32.7 32.7H132c-18.1 0-32.7-14.6-32.7-32.7V168.8c0-18.1 14.6-32.7 32.7-32.7h248c18.1 0 32.7 14.6 32.7 32.7v144.4z"/><path d="M337 389.9c-2.6 2.6-6.7 2.6-9.3 0l-31.3-44.3c-2.6-2.6-2.6-6.7 0-9.3h72c2.6 2.6 2.6 6.7 0 9.3L337 389.9z"/></g><g fill="#b7cac4"><path d="M364.9 191.6c0 6.6-5.3 11.9-11.9 11.9H158.2c-6.6 0-11.9-5.3-11.9-11.9s5.3-11.9 11.9-11.9h194.9c6.5.1 11.8 5.4 11.8 11.9z"/><use xlink:href="#B"/><use xlink:href="#B" y="47.5"/></g><defs ><path id="B" d="M364.9 239.2c0 6.6-5.3 11.9-11.9 11.9H158.2c-6.6 0-11.9-5.3-11.9-11.9s5.3-11.9 11.9-11.9h194.9c6.5 0 11.8 5.3 11.8 11.9z"/></defs></svg>